<mxfile host="app.diagrams.net" agent="Mozilla/5.0 (Windows NT 10.0; Win64; x64) AppleWebKit/537.36 (KHTML, like Gecko) Chrome/138.0.0.0 Safari/537.36 Edg/138.0.0.0" version="28.0.6">
  <diagram name="Trang-1" id="ygGozzhi3HCXC_RxLeu_">
    <mxGraphModel dx="1013" dy="546" grid="1" gridSize="10" guides="1" tooltips="1" connect="1" arrows="1" fold="1" page="1" pageScale="1" pageWidth="827" pageHeight="1169" math="0" shadow="0">
      <root>
        <mxCell id="0" />
        <mxCell id="1" parent="0" />
        <mxCell id="_TrHWjEBqj2b3oMs7wry-19" style="edgeStyle=orthogonalEdgeStyle;rounded=0;orthogonalLoop=1;jettySize=auto;html=1;" edge="1" parent="1" source="_TrHWjEBqj2b3oMs7wry-1" target="_TrHWjEBqj2b3oMs7wry-2">
          <mxGeometry relative="1" as="geometry" />
        </mxCell>
        <mxCell id="_TrHWjEBqj2b3oMs7wry-1" value="INIT" style="ellipse;whiteSpace=wrap;html=1;aspect=fixed;" vertex="1" parent="1">
          <mxGeometry x="514" y="110" width="80" height="80" as="geometry" />
        </mxCell>
        <mxCell id="_TrHWjEBqj2b3oMs7wry-9" style="edgeStyle=orthogonalEdgeStyle;rounded=0;orthogonalLoop=1;jettySize=auto;html=1;" edge="1" parent="1" source="_TrHWjEBqj2b3oMs7wry-2" target="_TrHWjEBqj2b3oMs7wry-7">
          <mxGeometry relative="1" as="geometry" />
        </mxCell>
        <mxCell id="_TrHWjEBqj2b3oMs7wry-11" value="every 1s" style="edgeLabel;html=1;align=center;verticalAlign=middle;resizable=0;points=[];" vertex="1" connectable="0" parent="_TrHWjEBqj2b3oMs7wry-9">
          <mxGeometry x="-0.025" y="1" relative="1" as="geometry">
            <mxPoint as="offset" />
          </mxGeometry>
        </mxCell>
        <mxCell id="_TrHWjEBqj2b3oMs7wry-2" value="IDLE" style="ellipse;whiteSpace=wrap;html=1;aspect=fixed;" vertex="1" parent="1">
          <mxGeometry x="514" y="230" width="80" height="80" as="geometry" />
        </mxCell>
        <mxCell id="_TrHWjEBqj2b3oMs7wry-32" style="edgeStyle=orthogonalEdgeStyle;rounded=0;orthogonalLoop=1;jettySize=auto;html=1;" edge="1" parent="1" source="_TrHWjEBqj2b3oMs7wry-7" target="_TrHWjEBqj2b3oMs7wry-13">
          <mxGeometry relative="1" as="geometry" />
        </mxCell>
        <mxCell id="_TrHWjEBqj2b3oMs7wry-33" value="yes" style="edgeLabel;html=1;align=center;verticalAlign=middle;resizable=0;points=[];" vertex="1" connectable="0" parent="_TrHWjEBqj2b3oMs7wry-32">
          <mxGeometry x="0.0516" relative="1" as="geometry">
            <mxPoint as="offset" />
          </mxGeometry>
        </mxCell>
        <mxCell id="_TrHWjEBqj2b3oMs7wry-7" value="SEND" style="ellipse;whiteSpace=wrap;html=1;aspect=fixed;" vertex="1" parent="1">
          <mxGeometry x="514" y="390" width="80" height="80" as="geometry" />
        </mxCell>
        <mxCell id="_TrHWjEBqj2b3oMs7wry-12" style="edgeStyle=orthogonalEdgeStyle;rounded=0;orthogonalLoop=1;jettySize=auto;html=1;entryX=1.021;entryY=0.409;entryDx=0;entryDy=0;entryPerimeter=0;" edge="1" parent="1" source="_TrHWjEBqj2b3oMs7wry-7" target="_TrHWjEBqj2b3oMs7wry-2">
          <mxGeometry relative="1" as="geometry">
            <Array as="points">
              <mxPoint x="690" y="430" />
              <mxPoint x="690" y="263" />
            </Array>
          </mxGeometry>
        </mxCell>
        <mxCell id="_TrHWjEBqj2b3oMs7wry-34" value="no" style="edgeLabel;html=1;align=center;verticalAlign=middle;resizable=0;points=[];" vertex="1" connectable="0" parent="_TrHWjEBqj2b3oMs7wry-12">
          <mxGeometry x="-0.7124" relative="1" as="geometry">
            <mxPoint as="offset" />
          </mxGeometry>
        </mxCell>
        <mxCell id="_TrHWjEBqj2b3oMs7wry-17" style="edgeStyle=orthogonalEdgeStyle;rounded=0;orthogonalLoop=1;jettySize=auto;html=1;entryX=0.5;entryY=0;entryDx=0;entryDy=0;" edge="1" parent="1" source="_TrHWjEBqj2b3oMs7wry-13" target="_TrHWjEBqj2b3oMs7wry-16">
          <mxGeometry relative="1" as="geometry">
            <Array as="points">
              <mxPoint x="250" y="400" />
            </Array>
          </mxGeometry>
        </mxCell>
        <mxCell id="_TrHWjEBqj2b3oMs7wry-18" value="cmd == ADD_PEER" style="edgeLabel;html=1;align=center;verticalAlign=middle;resizable=0;points=[];" vertex="1" connectable="0" parent="_TrHWjEBqj2b3oMs7wry-17">
          <mxGeometry x="0.0907" y="-1" relative="1" as="geometry">
            <mxPoint as="offset" />
          </mxGeometry>
        </mxCell>
        <mxCell id="_TrHWjEBqj2b3oMs7wry-13" value="RECEIVE" style="ellipse;whiteSpace=wrap;html=1;aspect=fixed;" vertex="1" parent="1">
          <mxGeometry x="320" y="360" width="80" height="80" as="geometry" />
        </mxCell>
        <mxCell id="_TrHWjEBqj2b3oMs7wry-25" style="edgeStyle=orthogonalEdgeStyle;rounded=0;orthogonalLoop=1;jettySize=auto;html=1;" edge="1" parent="1" source="_TrHWjEBqj2b3oMs7wry-16" target="_TrHWjEBqj2b3oMs7wry-24">
          <mxGeometry relative="1" as="geometry" />
        </mxCell>
        <mxCell id="_TrHWjEBqj2b3oMs7wry-26" value="get_peers == 1" style="edgeLabel;html=1;align=center;verticalAlign=middle;resizable=0;points=[];" vertex="1" connectable="0" parent="_TrHWjEBqj2b3oMs7wry-25">
          <mxGeometry x="0.2121" y="1" relative="1" as="geometry">
            <mxPoint as="offset" />
          </mxGeometry>
        </mxCell>
        <mxCell id="_TrHWjEBqj2b3oMs7wry-29" style="edgeStyle=orthogonalEdgeStyle;rounded=0;orthogonalLoop=1;jettySize=auto;html=1;" edge="1" parent="1" source="_TrHWjEBqj2b3oMs7wry-16" target="_TrHWjEBqj2b3oMs7wry-28">
          <mxGeometry relative="1" as="geometry" />
        </mxCell>
        <mxCell id="_TrHWjEBqj2b3oMs7wry-35" value="get_peers() == 0" style="edgeLabel;html=1;align=center;verticalAlign=middle;resizable=0;points=[];" vertex="1" connectable="0" parent="_TrHWjEBqj2b3oMs7wry-29">
          <mxGeometry x="0.2947" y="1" relative="1" as="geometry">
            <mxPoint as="offset" />
          </mxGeometry>
        </mxCell>
        <mxCell id="_TrHWjEBqj2b3oMs7wry-16" value="ADD PEER" style="ellipse;whiteSpace=wrap;html=1;aspect=fixed;" vertex="1" parent="1">
          <mxGeometry x="210" y="230" width="80" height="80" as="geometry" />
        </mxCell>
        <mxCell id="_TrHWjEBqj2b3oMs7wry-27" style="edgeStyle=orthogonalEdgeStyle;rounded=0;orthogonalLoop=1;jettySize=auto;html=1;entryX=0;entryY=0.5;entryDx=0;entryDy=0;" edge="1" parent="1" source="_TrHWjEBqj2b3oMs7wry-24" target="_TrHWjEBqj2b3oMs7wry-2">
          <mxGeometry relative="1" as="geometry" />
        </mxCell>
        <mxCell id="_TrHWjEBqj2b3oMs7wry-24" value="PEER&lt;div&gt;_FOUND&lt;/div&gt;" style="ellipse;whiteSpace=wrap;html=1;aspect=fixed;" vertex="1" parent="1">
          <mxGeometry x="300" y="120" width="80" height="80" as="geometry" />
        </mxCell>
        <mxCell id="_TrHWjEBqj2b3oMs7wry-31" style="edgeStyle=orthogonalEdgeStyle;rounded=0;orthogonalLoop=1;jettySize=auto;html=1;entryX=0;entryY=0.5;entryDx=0;entryDy=0;" edge="1" parent="1" source="_TrHWjEBqj2b3oMs7wry-28" target="_TrHWjEBqj2b3oMs7wry-2">
          <mxGeometry relative="1" as="geometry">
            <Array as="points">
              <mxPoint x="160" y="90" />
              <mxPoint x="470" y="90" />
              <mxPoint x="470" y="270" />
            </Array>
          </mxGeometry>
        </mxCell>
        <mxCell id="_TrHWjEBqj2b3oMs7wry-28" value="PEER_NOT&lt;div&gt;_FOUND&lt;/div&gt;" style="ellipse;whiteSpace=wrap;html=1;aspect=fixed;" vertex="1" parent="1">
          <mxGeometry x="120" y="110" width="80" height="80" as="geometry" />
        </mxCell>
      </root>
    </mxGraphModel>
  </diagram>
</mxfile>
